FFmpeg version SVN-r25716, Copyright (c) 2000-2010 the FFmpeg developers  built on Nov 10 2010 12:23:18 with gcc 4.1.2 20080704 (Red Hat 4.1.2-48)  configuration: --enable-libmp3lame --enable-shared --disable-mmx --arch=x86_64  libavutil     50.33. 0 / 50.33. 0  libavcore      0.12. 1 /  0.12. 1  libavcodec    52.94. 4 / 52.94. 4  libavformat   52.84. 0 / 52.84. 0  libavdevice   52. 2. 2 / 52. 2. 2  libavfilter    1.59. 0 /  1.59. 0  libswscale     0.12. 0 /  0.12. 0Input #0, avi, from '/RAID10/data/converted_video_files/47384.avi':  Duration: 00:00:06.00, start: 0.000000, bitrate: 20979 kb/s    Stream #0.0: Video: msvideo1, rgb555le, 1024x1024, 20 tbr, 20 tbn, 20 tbc[buffer @ 0x1680b4c0] w:1024 h:1024 pixfmt:rgb555le[ffsink @ 0x1680a5a0] auto-inserting filter 'auto-inserted scaler 0' between the filter 'src' and the filter 'out'[scale @ 0x16809460] w:1024 h:1024 fmt:rgb555le -> w:1024 h:1024 fmt:yuv420p flags:0x4Output #0, flv, to '/RAID10/data/converted_video_files/47384.flv':  Metadata:    encoder         : Lavf52.84.0    Stream #0.0: Video: flv, yuv420p, 1024x1024, q=2-31, 600 kb/s, 1k tbn, 24 tbcStream mapping:  Stream #0.0 -> #0.0Press [q] to stop encodingframe=    6 fps=  0 q=4.9 size=     700kB time=0.29 bitrate=19651.6kbits/s    frame=   10 fps=  8 q=9.5 size=     831kB time=0.50 bitrate=13616.1kbits/s    frame=   19 fps= 11 q=31.0 size=     905kB time=0.96 bitrate=7728.1kbits/s    frame=   29 fps= 13 q=31.0 size=     961kB time=1.46 bitrate=5400.8kbits/s    frame=   39 fps= 14 q=31.0 size=    1013kB time=1.96 bitrate=4234.5kbits/s    frame=   48 fps= 15 q=31.0 size=    1060kB time=2.38 bitrate=3657.2kbits/s    frame=   58 fps= 15 q=31.0 size=    1112kB time=2.88 bitrate=3169.2kbits/s    frame=   68 fps= 16 q=24.8 size=    1161kB time=3.37 bitrate=2820.0kbits/s    frame=   77 fps= 16 q=31.0 size=    1182kB time=3.83 bitrate=2527.2kbits/s    frame=   88 fps= 16 q=31.0 size=    1233kB time=4.38 bitrate=2309.3kbits/s    frame=   98 fps= 17 q=31.0 size=    1282kB time=4.87 bitrate=2154.1kbits/s    frame=  109 fps= 17 q=31.0 size=    1333kB time=5.46 bitrate=2001.0kbits/s    frame=  120 fps= 17 q=31.0 size=    1387kB time=6.00 bitrate=1893.8kbits/s    frame=  120 fps= 17 q=31.0 Lsize=    1387kB time=6.00 bitrate=1893.8kbits/s    video:1385kB audio:0kB global headers:0kB muxing overhead 0.150192%